<svg xmlns="http://www.w3.org/2000/svg" version="1.0" viewBox="0 0 2048 1118"><path d="M1006.6 357.2c-2.1 6.8-4 13.1-4.2 14-.4 1.2 1.3 2.6 6.3 5.4 3.7 2 8.5 4.7 10.5 6 2.1 1.3 4.2 2.4 4.8 2.4.5 0 3.9-1.8 7.4-4 3.6-2.2 9.2-5.3 12.6-7l6-3v-26h-39.7z"/><path d="M878 358.6c-1.4.2-7.4 1.2-13.5 2.1l-11 1.7 16.3 1.3c39.8 3.1 72.6 14.7 107.9 38 6.2 4.1 11.5 7.8 11.8 8.4.7 1-18.1 1.4-52 1.1l-21-.2-.6-7.8C914.7 388 914.8 388 880 388c-34.7 0-35.1.2-36 14.4l-.5 8.1-8 .8c-41 4.3-71.5 31.7-79 71.1-1.3 6.6-1.5 23.7-1.5 111.7 0 106.5 0 107.2 4 120.6 6.4 21.3 22.8 39.9 44.7 50.7 15.5 7.7-4.4 7 215.8 7.4 144.7.2 199 0 204.5-.8 19.4-3 39.6-15.6 52.6-32.9 7-9.4 11.4-18.8 14.5-31.1 1.9-7.8 1.9-11.2 1.7-117.3l-.3-109.2-3.6-10.2c-5.4-15.3-10.9-24.3-21.4-34.8-10-10-19.5-16-31.7-20.1-15-5.1-20.4-5.4-99.8-5.4h-75.2c-1 0-1.8-.4-1.8-.8 0-1.8 25.9-18.1 39.5-25 24.3-12.2 62.8-21.8 89-22.3 5.7-.1 6.4-.2 4-.9-12.8-3.7-47.3-5.2-65.5-2.9-34.7 4.3-67.1 15.3-93 31.7-6.1 3.9-20.1 14.3-24 17.9-2 1.9-3.6 2.3-8.8 2.3-4.9 0-6.1-.3-5.5-1.3 1-1.6 7.9-7.8 15.5-13.9l5.8-4.6-3.3-2c-20.8-12.6-44.3-21.6-71.7-27.3-14.4-3-17.1-3.2-38-3.5-12.4-.1-23.6-.1-25 .2m344.2 92.5c11.9 4 21.3 11.7 26.8 22 6.9 13 6.4 4.7 6.7 117.4.3 69.7 0 103.5-.7 107.1-3.1 14.7-12.9 27.3-26.7 34.1l-7.7 3.8-194.4.3c-216.5.2-199.3.8-211-6.7-3.2-2.1-7.7-5.8-10-8.1-4.8-5.1-10.6-16.3-12.1-23.8-.8-3.6-1.1-36.6-1.1-104 0-108.3-.1-105.1 6.1-117.7 5.7-11.6 15.7-20.3 28.3-24.7 4.8-1.6 15.9-1.7 197.4-1.8 191.4 0 192.3 0 198.4 2.1"/><path d="M1005.2 479.5c-35 5.5-67.2 28.8-83.1 60.1C912.8 558 909 573.4 909 593c0 45.5 26.5 86.1 68.7 104.8 17.9 8 36.5 11 57.1 9.3 13.6-1.2 22.4-3.5 35.2-9.1 29.7-12.8 53.1-38 63.3-68 11.7-34.6 6-73.7-15.1-103.5-10-14.1-27.2-28.9-43.2-37-19.4-9.8-46.2-13.7-69.8-10m41.8 38.4c30.5 10.9 50.1 35.1 54.2 67 3.8 29.6-12.7 61.4-39.9 76.5-16.1 8.9-36.9 11.8-53.8 7.6-15.5-3.9-25.7-9.4-36.8-19.9-15.7-14.9-24-34-24.1-55.6 0-22.2 8.6-42 25.1-57.6 8.9-8.4 16.9-13.2 29.1-17.5 9.7-3.5 9.8-3.5 24.7-3.1 12.6.2 16 .7 21.5 2.6"/></svg>